<svg data-v-fde0c5aa="" xmlns="http://www.w3.org/2000/svg" viewBox="0 0 300 300" class="iconAbove"><defs data-v-fde0c5aa=""></defs><rect data-v-fde0c5aa="" fill="#0B345A" x="0" y="0" width="300px" height="300px" class="logo-background-square"></rect><defs data-v-fde0c5aa=""></defs><g data-v-fde0c5aa="" id="dbc5acff-d9a2-4f6d-aa45-6f5e6a5febf8" fill="#22C4D6" transform="matrix(2.95119187858299,0,0,2.95119187858299,19.262202030354253,171.6458581566499)"><path d="M0.25 13.30C0.49 13.40 0.81 13.43 1.13 13.43C1.81 13.43 2.02 12.74 3.21 10.70C4.51 13.02 4.73 13.44 5.91 13.44C6.19 13.44 6.73 13.30 6.73 13.30L6.73 13.23C6.73 13.23 5.92 12.64 4.20 9.59C4.19 9.58 4.17 9.56 4.17 9.55C4.89 8.46 6.15 6.69 6.75 6.40L6.75 6.33C6.75 6.33 6.57 6.19 6.08 6.19C5.36 6.19 5.22 6.40 4.98 6.82C4.73 7.28 4.28 8.06 3.78 8.86C2.79 7.03 2.56 6.19 1.47 6.19C0.87 6.19 0.42 6.31 0.42 6.31L0.42 6.38C1.25 6.99 2.28 9.04 2.80 10.00C2.51 10.43 0.83 12.94 0.25 13.23ZM7.90 9.91C8.19 9.87 8.81 9.86 9.52 9.86L10.81 9.86C11.82 9.87 12.67 9.91 12.67 9.91C12.82 9.91 12.87 9.70 12.87 9.46C12.87 9.11 12.81 8.83 12.81 8.83C12.57 8.88 11.97 8.90 11.28 8.90L10.05 8.90C9.06 8.90 8.18 8.83 8.18 8.83C7.91 8.83 7.85 9.16 7.85 9.44C7.85 9.69 7.90 9.91 7.90 9.91ZM15.81 4.97C16.32 4.97 16.76 4.54 16.76 4.03C16.76 3.51 16.32 3.08 15.81 3.08C15.30 3.08 14.87 3.51 14.87 4.03C14.87 4.54 15.30 4.97 15.81 4.97ZM15.04 12.31C15.04 13.15 15.68 13.44 16.30 13.44C17.50 13.44 17.85 12.57 17.85 12.57L17.79 12.53C17.79 12.53 17.54 12.73 17.26 12.73C16.58 12.73 16.56 11.89 16.56 11.26C16.56 10.22 16.63 8.54 16.63 7.06C16.63 6.50 16.07 6.16 15.44 6.16C15.22 6.16 14.99 6.22 14.76 6.29C14.77 6.29 15.09 6.72 15.09 9.91C15.09 10.70 15.04 11.51 15.04 12.31ZM18.93 13.30C19.26 13.37 19.63 13.44 19.92 13.44C20.41 13.44 20.80 13.24 20.80 12.49C20.80 11.16 20.75 10.21 20.75 8.95C20.75 7.63 21.67 6.94 22.43 6.94C23.63 6.94 23.66 7.87 23.66 8.83C23.66 10.26 23.62 11.10 23.62 12.31C23.62 13.15 24.26 13.44 24.88 13.44C26.08 13.44 26.43 12.57 26.43 12.57L26.38 12.53C26.38 12.53 26.12 12.73 25.84 12.73C25.16 12.73 25.14 11.89 25.14 11.26C25.14 10.05 25.20 9.13 25.20 8.11C25.20 7.08 25.00 6.09 23.16 6.09C22.15 6.09 21.03 6.57 20.71 7.29L20.65 7.28C20.65 7.28 20.71 7.11 20.71 6.93C20.71 6.50 20.26 6.16 19.61 6.16C19.39 6.16 19.17 6.22 18.93 6.29C18.93 6.29 19.14 6.41 19.21 7.77C19.24 8.44 19.26 9.17 19.26 9.87C19.26 12.38 19.03 13.26 18.93 13.30ZM27.72 10.79C27.72 12.36 28.20 13.51 29.83 13.51C31.54 13.51 32.00 11.90 32.00 11.90L31.93 11.84C31.93 11.84 31.14 12.50 30.45 12.50C29.37 12.50 29.25 11.33 29.25 9.94C29.25 8.88 29.29 7.22 29.29 7.22C29.29 7.22 30.27 7.25 30.42 7.25C30.93 7.25 31.21 7.13 31.21 6.54C31.21 6.47 31.21 6.24 31.19 6.16C31.19 6.16 31.01 6.30 30.44 6.30L29.29 6.30L29.57 4.77L29.25 4.66C29.06 5.12 27.73 6.30 27.13 6.30L27.13 6.89C27.68 7.06 27.78 7.11 27.78 8.30C27.78 8.83 27.72 9.88 27.72 10.79ZM32.55 9.98C32.55 12.04 33.94 13.51 35.81 13.51C38.16 13.51 38.64 11.73 38.64 11.73L38.57 11.66C38.57 11.66 37.52 12.46 36.37 12.46C34.93 12.46 34.15 11.31 34.15 9.63L34.20 9.60C34.20 9.60 34.93 10.00 35.74 10.00C36.97 10.00 38.44 9.49 38.44 8.09C38.44 7.14 37.72 6.09 35.87 6.09C33.82 6.09 32.55 8.05 32.55 9.98ZM34.16 8.96C34.16 8.43 34.69 6.73 35.69 6.73C36.48 6.73 36.78 7.42 36.78 8.08C36.78 8.95 36.09 9.30 35.46 9.30C34.87 9.30 34.16 9.07 34.16 8.96ZM40.26 12.22C40.26 13.16 40.91 13.44 41.52 13.44C42.73 13.44 43.08 12.57 43.08 12.57L43.02 12.53C43.02 12.53 42.77 12.73 42.49 12.73C42 12.73 41.87 12.28 41.86 11.80C41.82 10.57 41.80 9.30 41.80 8.05C41.80 6.57 41.86 5.10 41.86 3.68C41.86 2.81 40.99 2.66 40.05 2.65L40.01 2.70C40.01 2.70 40.19 2.98 40.26 4.27C40.31 5.17 40.33 6.43 40.33 7.74C40.33 9.37 40.26 11.07 40.26 12.22ZM44.34 12.22C44.34 13.16 44.98 13.44 45.60 13.44C46.80 13.44 47.15 12.57 47.15 12.57L47.10 12.53C47.10 12.53 46.84 12.73 46.56 12.73C46.07 12.73 45.95 12.28 45.93 11.80C45.89 10.57 45.88 9.30 45.88 8.05C45.88 6.57 45.93 5.10 45.93 3.68C45.93 2.81 45.07 2.66 44.13 2.65L44.09 2.70C44.09 2.70 44.27 2.98 44.34 4.27C44.38 5.17 44.41 6.43 44.41 7.74C44.41 9.37 44.34 11.07 44.34 12.22ZM49.21 4.97C49.73 4.97 50.16 4.54 50.16 4.03C50.16 3.51 49.73 3.08 49.21 3.08C48.71 3.08 48.27 3.51 48.27 4.03C48.27 4.54 48.71 4.97 49.21 4.97ZM48.44 12.31C48.44 13.15 49.08 13.44 49.70 13.44C50.90 13.44 51.25 12.57 51.25 12.57L51.20 12.53C51.20 12.53 50.95 12.73 50.67 12.73C49.98 12.73 49.97 11.89 49.97 11.26C49.97 10.22 50.04 8.54 50.04 7.06C50.04 6.50 49.48 6.16 48.85 6.16C48.62 6.16 48.40 6.22 48.16 6.29C48.17 6.29 48.50 6.72 48.50 9.91C48.50 10.70 48.44 11.51 48.44 12.31ZM51.94 14.63C51.94 15.41 52.92 16.52 54.81 16.52C56.76 16.52 58.16 15.54 58.16 14.21C58.16 11.79 53.91 12.67 53.91 11.62C53.91 11.52 54.00 11.31 54.12 11.13C54.32 11.16 54.53 11.16 54.77 11.16C56.59 11.16 57.89 10.04 57.89 8.51C57.89 7.73 57.61 7.13 57.08 6.72C57.75 6.57 58.51 6.17 58.51 5.47C58.51 4.93 57.95 4.94 57.46 4.89C57.39 5.71 57.19 6.36 56.46 6.38C56.07 6.24 55.58 6.16 55.03 6.16C53.21 6.16 51.91 7.29 51.91 8.81C51.91 9.98 52.50 10.74 53.62 11.03C53.35 11.27 52.96 11.73 52.96 12.31C52.96 14.35 56.85 13.52 56.85 14.74C56.85 15.54 55.97 15.90 55.15 15.90C53.59 15.90 53.17 14.67 53.13 14C52.65 14 51.94 13.99 51.94 14.63ZM54.95 10.53C53.89 10.53 53.47 9.59 53.47 8.51C53.47 7.57 54.07 6.79 54.84 6.79C55.90 6.79 56.32 7.73 56.32 8.81C56.32 9.74 55.73 10.53 54.95 10.53ZM59.21 9.98C59.21 12.04 60.59 13.51 62.47 13.51C64.82 13.51 65.30 11.73 65.30 11.73L65.23 11.66C65.23 11.66 64.18 12.46 63.03 12.46C61.59 12.46 60.80 11.31 60.80 9.63L60.86 9.60C60.86 9.60 61.59 10.00 62.40 10.00C63.63 10.00 65.10 9.49 65.10 8.09C65.10 7.14 64.37 6.09 62.52 6.09C60.48 6.09 59.21 8.05 59.21 9.98ZM60.82 8.96C60.82 8.43 61.35 6.73 62.34 6.73C63.14 6.73 63.43 7.42 63.43 8.08C63.43 8.95 62.75 9.30 62.12 9.30C61.53 9.30 60.82 9.07 60.82 8.96ZM66.75 13.30C67.09 13.37 67.45 13.44 67.75 13.44C68.24 13.44 68.63 13.24 68.63 12.49C68.63 11.16 68.57 10.21 68.57 8.95C68.57 7.63 69.50 6.94 70.25 6.94C71.46 6.94 71.48 7.87 71.48 8.83C71.48 10.26 71.44 11.10 71.44 12.31C71.44 13.15 72.09 13.44 72.70 13.44C73.91 13.44 74.26 12.57 74.26 12.57L74.20 12.53C74.20 12.53 73.95 12.73 73.67 12.73C72.98 12.73 72.97 11.89 72.97 11.26C72.97 10.05 73.02 9.13 73.02 8.11C73.02 7.08 72.83 6.09 70.98 6.09C69.97 6.09 68.85 6.57 68.53 7.29L68.47 7.28C68.47 7.28 68.53 7.11 68.53 6.93C68.53 6.50 68.08 6.16 67.44 6.16C67.21 6.16 66.99 6.22 66.75 6.29C66.75 6.29 66.96 6.41 67.03 7.77C67.06 8.44 67.09 9.17 67.09 9.87C67.09 12.38 66.85 13.26 66.75 13.30ZM74.91 10.02C74.91 11.98 76.43 13.51 78.29 13.51C80.61 13.51 81.20 11.62 81.20 11.62L81.14 11.56C81.14 11.56 79.95 12.47 78.88 12.47C77.45 12.47 76.54 11.14 76.54 9.49C76.54 8.29 77.03 6.75 78.41 6.75C79.63 6.75 80.42 8.02 80.42 8.02L80.49 8.02C80.72 7.77 80.98 7.36 80.98 7.08C80.98 6.34 79.31 6.09 78.72 6.09C76.45 6.09 74.91 7.87 74.91 10.02ZM82.26 9.98C82.26 12.04 83.65 13.51 85.53 13.51C87.88 13.51 88.35 11.73 88.35 11.73L88.28 11.66C88.28 11.66 87.23 12.46 86.09 12.46C84.64 12.46 83.86 11.31 83.86 9.63L83.92 9.60C83.92 9.60 84.64 10.00 85.46 10.00C86.69 10.00 88.16 9.49 88.16 8.09C88.16 7.14 87.43 6.09 85.58 6.09C83.54 6.09 82.26 8.05 82.26 9.98ZM83.87 8.96C83.87 8.43 84.41 6.73 85.40 6.73C86.20 6.73 86.49 7.42 86.49 8.08C86.49 8.95 85.81 9.30 85.18 9.30C84.59 9.30 83.87 9.07 83.87 8.96Z"></path></g><defs data-v-fde0c5aa=""></defs><g data-v-fde0c5aa="" id="e89412c5-fb09-4705-a37d-af08bc3bf41a" stroke="none" fill="#22C4D6" transform="matrix(1.3644340273475992,0,0,1.3644340273475992,106.33934143376513,76.87160396772705)"><path d="M61 5H13.49l-2.71-2.71a1 1 0 0 0-.71-.29H5.93a1 1 0 0 0-.71.29L2.29 5.22a1 1 0 0 0-.29.71v4.14a1 1 0 0 0 .29.71L5 13.49v6l-2.71 2.73a1 1 0 0 0-.29.71v4.14a1 1 0 0 0 .29.71L4 29.45 2 60.94A1 1 0 0 0 3 62h10a1 1 0 0 0 1-1.06l-2-31.49 1.68-1.67a1 1 0 0 0 .29-.71v-4.14a1 1 0 0 0-.29-.71L11 19.51v-6L13.49 11h19.73l.78 3.24a1 1 0 0 0 1 .76h2v3a1 1 0 0 0 1 1h2a1 1 0 0 1 0 2h-4v2h4a3 3 0 0 0 0-6h-1v-2h2a1 1 0 0 0 1-.76l.78-3.24H61a1 1 0 0 0 1-1V6a1 1 0 0 0-1-1M8 28a3 3 0 1 1 3-3 3 3 0 0 1-3 3m0-17a3 3 0 1 1 3-3 3 3 0 0 1-3 3m32.22 2h-4.44l-.5-2h5.44Z"></path><path d="M19.82 30H17a1 1 0 0 0-1 1v26a1 1 0 0 0 1 1h44a1 1 0 0 0 1-1V31a1 1 0 0 0-1-1h-2.82l-18.83-6.94a1.05 1.05 0 0 0-.7 0ZM60 32v24H18V32Zm-7.61-2H25.61L39 25.07Z"></path><path d="M44 34h2v20h-2zM50 34h2v20h-2zM56 34h2v20h-2zM42 34H20v20h22Zm-4 15a1 1 0 0 1-1 1H25a1 1 0 0 1-1-1V39a1 1 0 0 1 1-1h12a1 1 0 0 1 1 1Z"></path><path d="M26 48h10v-8H26Zm3-6h4v2h-4Z"></path></g></svg>